<?xml version="1.0" encoding="iso-8859-1"?>
<!-- Uploaded to: SVG Repo, www.svgrepo.com, Generator: SVG Repo Mixer Tools -->
<svg height="800px" width="800px" version="1.1" id="Layer_1" xmlns="http://www.w3.org/2000/svg" xmlns:xlink="http://www.w3.org/1999/xlink" 
	 viewBox="0 0 512 512" xml:space="preserve">
<path style="fill:#7EB044;" d="M122.435,367.304c-64.441,0-116.87-52.429-116.87-116.87c0-9.223,7.473-16.696,16.696-16.696
	c64.441,0,116.87,52.429,116.87,116.87C139.13,359.831,131.657,367.304,122.435,367.304z"/>
<path style="fill:#719746;" d="M389.565,200.348c-9.223,0-16.696-7.473-16.696-16.696c0-64.441,52.429-116.87,116.87-116.87
	c9.223,0,16.696,7.473,16.696,16.696C506.435,147.919,454.006,200.348,389.565,200.348z"/>
<path style="fill:#89BD36;" d="M404.445,177.451c-19.929-49.832-19.929-104.723,0-154.554c2.06-5.147,1.429-10.972-1.674-15.559
	C399.663,2.75,394.484,0,388.945,0h-99.554c-5.539,0-10.717,2.75-13.826,7.337c-3.103,4.587-3.733,10.413-1.674,15.559
	c19.929,49.832,19.929,104.723,0,154.554c-1.421,3.547-1.623,8.352,0,12.403c19.929,49.832,19.929,104.723,0,154.554
	c-1.593,3.984-1.593,8.424,0,12.403c16.967,42.418,19.462,89.99,7.017,133.946c-1.424,5.032-0.407,10.446,2.75,14.62
	c3.152,4.174,8.082,6.625,13.315,6.625h84.391c5.234,0,10.163-2.451,13.315-6.625c3.158-4.174,4.174-9.587,2.75-14.62
	c-12.446-43.956-9.952-91.527,7.017-133.946c1.593-3.978,1.593-8.418,0-12.403c-19.929-49.832-19.929-104.723,0-154.554
	C406.068,185.804,405.867,180.998,404.445,177.451z"/>
<path style="fill:#7CA339;" d="M404.445,189.853c1.623-4.05,1.421-8.855,0-12.403c-19.929-49.832-19.929-104.723,0-154.554
	c2.06-5.147,1.429-10.972-1.674-15.559C399.663,2.75,394.484,0,388.945,0h-49.467v512h41.886c5.234,0,10.163-2.451,13.315-6.625
	c3.158-4.174,4.174-9.587,2.75-14.62c-12.446-43.956-9.952-91.527,7.017-133.946c1.593-3.978,1.593-8.418,0-12.403
	C384.516,294.576,384.516,239.685,404.445,189.853z"/>
<path style="fill:#89BD36;" d="M237.489,177.451c-19.929-49.832-19.929-104.723,0-154.554c2.06-5.147,1.429-10.972-1.674-15.559
	C232.706,2.75,227.527,0,221.989,0h-99.554c-5.538,0-10.717,2.75-13.826,7.337c-3.103,4.587-3.733,10.413-1.674,15.559
	c19.929,49.832,19.929,104.723,0,154.554c-1.421,3.547-1.623,8.352,0,12.403c19.929,49.832,19.929,104.723,0,154.554
	c-1.593,3.984-1.593,8.424,0,12.403c16.967,42.418,19.462,89.99,7.017,133.946c-1.424,5.032-0.407,10.446,2.75,14.62
	c3.152,4.174,8.082,6.625,13.315,6.625h84.391c5.234,0,10.163-2.451,13.315-6.625c3.158-4.174,4.174-9.587,2.75-14.62
	c-12.446-43.956-9.952-91.527,7.017-133.946c1.593-3.978,1.593-8.418,0-12.403c-19.929-49.832-19.929-104.723,0-154.554
	C239.112,185.804,238.91,180.998,237.489,177.451z"/>
<path style="fill:#7CA339;" d="M237.489,189.853c1.623-4.05,1.421-8.855,0-12.403c-19.929-49.832-19.929-104.723,0-154.554
	c2.06-5.147,1.429-10.972-1.674-15.559C232.706,2.75,227.527,0,221.989,0h-49.467v512h41.886c5.234,0,10.163-2.451,13.315-6.625
	c3.158-4.174,4.174-9.587,2.75-14.62c-12.446-43.956-9.952-91.527,7.017-133.946c1.593-3.978,1.593-8.418,0-12.403
	C217.56,294.576,217.56,239.685,237.489,189.853z"/>
<path style="fill:#BAE446;" d="M273.891,177.451c-1.593,3.984-1.593,8.424,0,12.403c1.38,3.449,2.51,6.982,3.698,10.495h123.159
	c1.189-3.513,2.318-7.044,3.698-10.495c1.593-3.978,1.593-8.418,0-12.403c-1.384-3.458-2.44-6.991-3.631-10.495H277.522
	C276.331,170.46,275.275,173.993,273.891,177.451z"/>
<path style="fill:#AFD743;" d="M400.815,166.957h-61.336v33.391h61.27c1.189-3.513,2.318-7.044,3.698-10.495
	c1.593-3.978,1.593-8.418,0-12.403C403.062,173.993,402.006,170.46,400.815,166.957z"/>
<path style="fill:#BAE446;" d="M273.891,344.408c-1.593,3.984-1.593,8.423,0,12.403c1.38,3.449,2.51,6.982,3.698,10.495h123.159
	c1.189-3.513,2.318-7.044,3.698-10.495c1.593-3.978,1.593-8.418,0-12.403c-1.384-3.458-2.44-6.991-3.631-10.495H277.522
	C276.331,337.417,275.275,340.95,273.891,344.408z"/>
<path style="fill:#AFD743;" d="M400.815,333.913h-61.336v33.391h61.27c1.189-3.513,2.318-7.044,3.698-10.495
	c1.593-3.978,1.593-8.418,0-12.403C403.062,340.95,402.006,337.417,400.815,333.913z"/>
<path style="fill:#BAE446;" d="M106.935,177.451c-1.593,3.984-1.593,8.424,0,12.403c1.38,3.449,2.51,6.982,3.698,10.495h123.159
	c1.189-3.513,2.318-7.044,3.698-10.495c1.593-3.978,1.593-8.418,0-12.403c-1.384-3.458-2.44-6.991-3.631-10.495H110.565
	C109.374,170.46,108.318,173.993,106.935,177.451z"/>
<path style="fill:#AFD743;" d="M233.858,166.957h-61.336v33.391h61.27c1.189-3.513,2.318-7.044,3.698-10.495
	c1.593-3.978,1.593-8.418,0-12.403C236.105,173.993,235.049,170.46,233.858,166.957z"/>
<path style="fill:#BAE446;" d="M106.935,344.408c-1.593,3.984-1.593,8.423,0,12.403c1.38,3.449,2.51,6.982,3.698,10.495h123.159
	c1.189-3.513,2.318-7.044,3.698-10.495c1.593-3.978,1.593-8.418,0-12.403c-1.384-3.458-2.44-6.991-3.631-10.495H110.565
	C109.374,337.417,108.318,340.95,106.935,344.408z"/>
<path style="fill:#AFD743;" d="M233.858,333.913h-61.336v33.391h61.27c1.189-3.513,2.318-7.044,3.698-10.495
	c1.593-3.978,1.593-8.418,0-12.403C236.105,340.95,235.049,337.417,233.858,333.913z"/>
</svg>