<?xml version="1.0" standalone="no"?>
<!DOCTYPE svg PUBLIC "-//W3C//DTD SVG 20010904//EN"
 "http://www.w3.org/TR/2001/REC-SVG-20010904/DTD/svg10.dtd">
<svg version="1.0" xmlns="http://www.w3.org/2000/svg"
 width="585.000000pt" height="474.000000pt" viewBox="0 0 585.000000 474.000000"
 preserveAspectRatio="xMidYMid meet">
<metadata>
Created by potrace 1.16, written by Peter Selinger 2001-2019
</metadata>
<g transform="translate(0.000000,474.000000) scale(0.100000,-0.100000)"
fill="#ffffff" stroke="none">
<path d="M3875 4697 c-57 -23 -74 -37 -99 -80 -27 -48 -38 -114 -28 -171 l7
-40 65 -12 c116 -21 209 -72 340 -185 l67 -58 30 19 c69 42 98 113 91 225 -9
129 -72 220 -195 277 -55 26 -80 31 -157 34 -57 3 -102 -1 -121 -9z"/>
<path d="M1725 4235 c209 -199 777 -689 1125 -970 586 -474 694 -554 848 -627
68 -33 139 -73 158 -90 105 -93 181 -417 155 -662 -32 -296 -158 -602 -338
-824 -57 -70 -73 -103 -73 -153 0 -122 144 -192 395 -192 156 0 265 16 322 49
23 13 47 24 53 24 7 0 98 -53 204 -117 105 -64 241 -147 303 -184 174 -105
424 -259 468 -289 48 -32 85 -52 85 -46 0 2 -53 42 -117 87 -65 46 -264 187
-443 314 -179 127 -346 246 -372 264 -27 17 -48 35 -48 38 0 3 26 33 58 68
121 128 221 278 309 460 67 139 96 226 123 362 12 60 23 114 25 121 3 9 21 1
59 -25 52 -36 55 -40 50 -73 -2 -19 -9 -116 -14 -215 -11 -211 -26 -280 -99
-449 -92 -215 -107 -286 -72 -354 23 -44 110 -130 166 -164 150 -92 329 -99
457 -17 107 69 175 170 224 335 23 79 27 111 31 279 6 219 -7 335 -63 585 -32
145 -98 357 -141 459 l-19 45 0 -78 c1 -72 -1 -79 -26 -101 -23 -20 -42 -24
-135 -30 -156 -10 -210 -40 -263 -143 -12 -23 -25 -42 -28 -42 -3 0 -29 19
-59 41 -60 47 -57 31 -43 219 11 156 -4 568 -25 692 -40 228 -148 474 -293
668 -53 70 -248 280 -261 280 -3 0 -5 -57 -3 -127 7 -263 -47 -478 -156 -625
-48 -66 -91 -104 -168 -150 -95 -58 -153 -73 -279 -73 -100 0 -116 3 -170 28
-147 69 -469 294 -859 601 l-88 69 7 91 c9 123 37 224 90 331 42 84 44 91 27
104 -37 29 -119 61 -157 61 -117 -1 -222 -119 -248 -279 -6 -36 -12 -68 -14
-70 -1 -2 -44 30 -95 71 -195 157 -598 466 -628 482 -8 4 17 -23 55 -59z"/>
<path d="M3777 3819 c-19 -11 -47 -60 -47 -84 0 -8 9 -15 20 -15 11 0 62 -29
115 -65 101 -69 128 -77 146 -44 18 35 2 84 -46 137 -65 73 -138 100 -188 71z"/>
<path d="M3177 3681 c-65 -72 -69 -190 -9 -253 14 -16 33 -28 43 -28 27 0 67
56 85 118 9 31 23 65 31 74 20 22 2 80 -34 108 -40 32 -75 26 -116 -19z"/>
<path d="M3720 3266 c-142 -59 -170 -73 -170 -86 0 -18 60 -40 110 -40 45 0
56 -4 80 -30 l29 -31 -6 36 c-5 32 -2 39 35 70 26 23 46 51 56 82 9 25 16 48
16 50 0 8 -35 -3 -150 -51z"/>
<path d="M1320 3063 c0 -9 202 -178 480 -402 52 -42 189 -155 304 -251 115
-96 228 -191 252 -210 183 -149 234 -192 234 -200 0 -5 -35 2 -77 16 -272 85
-571 131 -903 140 -116 3 -250 12 -310 22 -148 24 -466 23 -615 -2 -119 -19
-306 -70 -413 -112 -74 -29 -232 -115 -232 -126 0 -8 51 -23 137 -40 32 -6
141 -11 243 -11 203 0 301 13 504 64 113 28 326 104 326 116 0 5 -205 -3 -340
-13 -80 -6 -89 2 -19 17 102 23 402 60 489 61 168 1 714 -76 975 -137 95 -22
295 -83 295 -89 0 -24 68 -327 99 -437 45 -164 72 -239 101 -286 66 -109 314
-194 482 -165 126 22 189 72 256 208 22 44 47 86 56 93 10 8 35 12 66 9 27 -1
50 -2 50 -1 0 2 -19 15 -42 29 -47 29 -182 127 -259 187 -27 20 -49 44 -49 51
0 8 40 47 90 86 119 95 172 157 224 265 37 74 86 229 86 269 0 5 -19 -21 -42
-60 -102 -171 -227 -299 -361 -371 -64 -33 -80 -38 -142 -38 -90 0 -146 27
-276 132 -363 296 -1359 1016 -1602 1159 -61 36 -67 38 -67 27z"/>
<path style="fill:#74C69D" d="M1126 2859 c4 -8 33 -45 64 -84 149 -183 366 -346 633 -476 137 -66
379 -147 363 -121 -11 18 -247 188 -349 250 -56 35 -91 61 -77 58 35 -9 298
-141 394 -199 43 -26 81 -45 83 -44 2 2 -38 44 -89 93 -299 288 -652 478 -987
529 -35 6 -42 5 -35 -6z"/>
<path style="fill:#74C69D" d="M2010 1925 c-269 -74 -504 -187 -711 -340 -85 -64 -279 -254 -279
-274 0 -27 171 3 344 60 206 67 441 194 602 325 103 83 188 164 173 164 -25 0
-221 -67 -348 -119 -68 -28 -129 -51 -135 -51 -27 1 234 143 409 223 94 42 72
47 -55 12z"/>
<path style="fill:#74C69D" d="M2284 1698 c-198 -203 -386 -503 -458 -730 -29 -92 -68 -269 -61
-276 7 -7 112 74 179 137 196 186 392 502 482 780 19 57 33 105 31 108 -4 3
-112 -133 -224 -282 -32 -44 -88 -126 -122 -183 -35 -57 -66 -101 -69 -98 -13
13 265 541 316 599 8 9 11 17 6 17 -5 0 -41 -33 -80 -72z"/>
</g>
</svg>
